<svg width="176" height="177" viewBox="0 0 176 177" fill="none" xmlns="http://www.w3.org/2000/svg">
<path d="M88 17C48.576 17 16.5 49.076 16.5 88.5C16.5 127.924 48.576 160 88 160C127.424 160 159.5 127.924 159.5 88.5C159.5 49.076 127.424 17 88 17ZM88 28C89.859 28 91.685 28.11 93.5 28.275V33.5H104.5V30.343C117.866 34.1596 129.515 42.4503 137.5 53.828V72L143 83V88.5H148.5C148.496 90.5167 148.395 92.5077 148.197 94.473C148.148 95.001 148.038 95.507 147.978 96.0295C147.79 97.476 147.604 98.9115 147.318 100.325C147.213 100.853 147.076 101.37 146.954 101.898C146.635 103.295 146.295 104.681 145.877 106.039C145.73 106.505 145.576 106.967 145.414 107.425C144.961 108.822 144.456 110.202 143.902 111.562C143.733 111.954 143.561 112.344 143.385 112.733C142.776 114.137 142.116 115.512 141.405 116.858C141.236 117.188 141.059 117.507 140.872 117.815C139.158 120.901 137.178 123.831 134.954 126.571L134.459 127.182C133.384 128.461 132.264 129.693 131.098 130.878L130.592 131.406C129.397 132.588 128.153 133.72 126.863 134.799C126.682 134.953 126.528 135.113 126.34 135.261C125.054 136.317 123.701 137.296 122.331 138.247C122.117 138.396 121.924 138.566 121.709 138.709C120.389 139.59 119.025 140.398 117.639 141.185C111.057 144.892 103.834 147.321 96.349 148.346L118.41 131.714L124.459 125.663L132 110.5V105L121 99.5H115.5L104.5 88.5H93.5L88 94V99.5L82.5 105V116L93.5 124.8L82.6265 148.73C51.777 145.992 27.5 120.043 27.5 88.5C27.5 69.756 36.0745 52.9755 49.5 41.8655V44.5L44 50V62.1L49.5 83L77 94H82.5V88.5L66 83V72H82.5L88 58.25L99 50V44.5L82.5 33.5L74.591 29.5455C78.989 28.5318 83.4867 28.0134 88 28ZM82.5 77.5V83H93.5V77.5H82.5Z" fill="#F9F9F9"/>
</svg>
